<?xml version="1.0" encoding="UTF-8" standalone="no"?>
<svg width="14" height="21"
    xmlns="http://www.w3.org/2000/svg" viewBox="0 0 14 21" version="1.1">
    <g>
        <title>Layer 1</title>
        <g stroke-width="0" id="svg_1">
            <path id="svg_2" fill="#0e232e" d="m6.9998,0.96875c-3.8657,0 -6.9998,3.09998 -6.9998,7c0,1.30005 0.4017,2.59998 1.0938,3.69995c0.0334,0.1001 0.059,0.1001 0.0938,0.20007l4.3432,8c0.204,0.59998 0.782,1.09998 1.438,1.09998s1.202,-0.5 1.406,-1.09998l4.844,-8.70007c0.499,-1 0.781,-2.09998 0.781,-3.19995c0,-3.90002 -3.134,-7 -7,-7zm-0.031,3.90002c1.933,0 3.5,1.59998 3.5,3.5c0,2 -1.567,3.5 -3.5,3.5s-3.5,-1.5 -3.5,-3.5c0,-1.90002 1.567,-3.5 3.5,-3.5z"/>
            <path id="svg_3" fill="#00aeff" d="m6.9998,0c-3.8657,0 -6.9998,3.13391 -6.9998,6.99994c0,1.383 0.4017,2.66479 1.0938,3.74982c0.0334,0.05298 0.059,0.10498 0.0938,0.15698l4.3432,8.06201c0.204,0.586 0.782,1.03101 1.438,1.03101s1.202,-0.44501 1.406,-1.03101l4.844,-8.75c0.499,-0.96301 0.781,-2.06 0.781,-3.21881c0,-3.86603 -3.134,-6.99994 -7,-6.99994zm-0.031,3.96875c1.933,0 3.5,1.56702 3.5,3.5s-1.567,3.5 -3.5,3.5s-3.5,-1.56702 -3.5,-3.5s1.567,-3.5 3.5,-3.5z"/>
        </g>
    </g>
</svg>