<svg xmlns="http://www.w3.org/2000/svg" viewBox="0 0 512 512"><title>Artboard 144</title><g id="Globe"><circle cx="256" cy="256" r="234.66667" style="fill:#0784ff"/><path d="M201.43546,401.3956l30.68708-40.63773a35.12446,35.12446,0,0,1,50.89982-13.51719l.00007,0a35.12446,35.12446,0,0,1,8.616,50.3L256,435.11835a32.20232,32.20232,0,0,1-48.53234,3.44909l0,0A32.20231,32.20231,0,0,1,201.43546,401.3956Z" style="fill:#005eee"/><rect x="53.33335" y="294.2484" width="60.33978" height="90.50967" rx="30.16986" ry="30.16986" transform="translate(-215.60751 158.4839) rotate(-45)" style="fill:#005eee"/><path d="M149.86142,181.33332l0,0a60.64,60.64,0,0,1,79.5528,5.41431l30.158,30.158a60.64006,60.64006,0,0,1,17.76106,42.879v81.54878A42.66663,42.66663,0,0,0,320,384H320a42.66663,42.66663,0,0,0,42.66663-42.66662V64h-192l-74.1386,64a37.71232,37.71232,0,0,0,5.74761,58.04519l.00006,0A37.71233,37.71233,0,0,0,149.86142,181.33332Z" style="fill:#005eee"/><path d="M256,106.66667h-.15658l-.07421.00032h-.11784l-.04492.00033h-.06934l-.05306.00032h-.0625l-.05176.00033-.0651.00032-.05078.00033-.07259.00033h-.03972l-.07519.00065-.0446.00032-.08626.00033-.02572.00032-.10026.00065-.01855.00033-.11817.001h-.00716l-.10482.001-.04622.00033-.07227.00065-.04427.00065-.069.00065-.04948.00065-.06933.00065-.04786.00065-.06315.00066-.055.001-.06478.00065-.04883.00065-.068.001-.04753.00065-.07649.0013-.03809.00033-.0791.0013-.03841.00065c-.08008.0013-.15169.00228-.23177.00391l-.027.00032-.08887.00163-.03678.00065-.07748.00163-.04427.00065-.07454.00163-.03809.00065-.07747.00163-.04232.00065-.07422.00163-.04166.001-.07194.00163-.04688.001-.07389.00162-.03874.001-.084.00195-.03321.00066-.09472.00227-.02116.00066-.11231.0026-.04687.0013-.07292.00195-.03613.001-.07845.002-.042.00131-.0752.00195-.04264.0013-.06966.002-.04883.00131-.06934.002-.04622.0013-.06869.002-.04687.00162-.069.002-.04785.00162-.06316.002-.05306.00162-.0677.00228-.04688.0013-.10384.00359-.041.0013-.08235.0026-.043.00163-.07324.0026-.04981.00163-.06217.00228-.055.00195-.06119.00228-.05534.002-.0586.00228-.05371.002-.0625.00228-.055.00195-.05827.00228-.055.00228-.06576.0026-.04752.00163-.08561.00358-.0267.001-.08951.00359-.0293.0013-.11426.00488-.02279.001-.09082.00358-.04329.002-.071.00326-.054.00227-.056.00228-.0612.00293-.05534.00228-.05664.00261-.05989.00293-.05111.00227-.068.00293-.04818.00228-.06283.00293-.05241.00261-.06022.00293-.057.0026-.05339.0026-.05924.00293-.04688.00228-.1403.00716-.03548.00163-.06706.00358-.04752.00228-.05827.00326-.05794.00293-.058.00293-.054.00293-.06022.00325-.05306.0026-.06381.00359-.0498.0026-.06055.00325-.05664.00326-.05827.00326-.05664.00325-.05534.00293-.06022.00358-.05566.00293c-.03483.00195-.06869.00391-.10319.00619l-.00716.00032-.11426.00651-.03711.00228-.07845.00456-.0472.00293-.06283.00358-.05761.00358-.05762.00358-.05762.00358-.05469.00325-.05794.00359-.05729.00358-.05859.00358-.05144.00325-.06217.00391-.05273.00325-.06218.00424-.04883.00293-.06315.00423-.05338.00358-.06088.0039-.04882.00326c-.04069.0026-.08138.00521-.12207.00814l-.04981.00325-.06315.00423-.05046.00358-.06445.00424-.0485.00325-.05957.00423-.05632.00391-.06119.00423-.04851.00358-.06282.00423-.05241.00391-.0625.00423-.05078.00358-.05957.00456-.05534.00391-.06055.00455-.04655.00326-.06608.00488-.03678.00261c-.04948.0039-.1045.00781-.154.01171l-.03.002-.08334.00651-.026.00195-.07942.00586-.03386.00261-.07584.00585-.03614.00293-.07.00554-.04688.00358-.06348.00488-.04915.00391-.06348.00521-.05208.0039-.05892.00489-.057.00455-.055.00456-.05859.00456-.05794.00488-.03581.00293c-.08561.00684-.16276.01335-.24837.02051l-.04851.0039-.06705.00586-.04362.00358-.068.00586-.04492.00358-.06413.00554-.05208.00455-.05566.00489-.058.00488-.05957.00521-.04915.00456-.06348.00553-.04818.00423-.0651.00586-.05078.00456-.05925.00521-.067.00586-.0446.00423c-.07845.00683-.14583.013-.22461.02051l-.03646.00325-.08138.00749-.02929.0026-.08171.00781-.04525.00424-.06478.00586-.05729.00553-.05143.00488-.06087.00586-.05469.00521-.05762.00553-.05534.00521-.056.00554-.06185.00586-.05013.00488-.0625.00618-.05144.00521-.06217.00619-.05111.00488-.0306.00293-.15462.01562-.0332.00326-.0739.00749-.0371.0039-.071.00716-.043.00424-.0638.00651-.04883.0052-.06315.00651-.05045.00521-.05892.00619-.054.00553-.06022.00619-.05143.00553-.06022.00619-.04786.0052-.067.00717-.03679.0039-.07389.00781-.01921.00228c-.0625.00651-.126.01335-.18847.02019l-.00847.001-.071.00781-.042.00456-.06185.00684-.05208.00553-.06023.00684-.0498.00553-.06445.00716-.04785.00521-.06185.00684-.05046.00586-.06185.00683-.0498.00554-.06348.00716-.042.00488-.071.00814-.04264.00488-.06543.00749-.06282.00716-.04883.00586-.10873.01269-.06217.00717-.04753.00553-.06185.00716-.05306.00651-.05338.00619-.05827.00683-.05566.00684-.05664.00683-.057.00684-.05143.00618-.06283.00749-.05143.00619-.05632.00683-.05664.00684-.05859.00716-.04785.00586-.06348.00781-.04036.00488-.27116.03386-.0153.002-.07682.00977-.03451.00423-.07357.00944-.03645.00456-.069.00879-.04557.00586-.06445.00813-.0446.00586-.06608.00847-.04655.00586-.06413.00846-.04654.00586-.06381.00846-.05045.00651-.06022.00781-.05013.00684-.06185.00814-.04427.00586c-.04883.00618-.10157.01334-.15039.01986l-.02214.00292-.06608.00879-.0446.00586-.0612.00847-.0511.00683-.05925.00814-.05241.00684-.05794.00813-.05208.00684-.06185.00846-.04948.00684-.06087.00846-.04785.00651-.06478.00912-.04981.00683-.05664.00782-.05566.00781-.0599.00846-.03971.00554-.07031.00976-.014.002-.16927.02408-.03255.00456-.071.01009-.03743.00554-.06771.00944-.04622.00683-.06055.00879-.04948.00684-.0612.00911-.05013.00716-.0651.00944-.03809.00554-.07454.01107-.03451.00488-.07454.01107-.03223.00488-.0778.01139-.02832.00423c-.11914.01758-.24577.03646-.36458.05437l-.04.00618-.07031.01074-.03842.00554-.07682.01172-.0293.00455-.0791.012-.03287.00521-.07129.01074-.03939.00618-.07292.0114-.03385.0052-.07487.0114-.03223.00521-.07975.01237-.02376.00358-.08138.013-.03516.00521c-.12305.01953-.23861.03776-.36165.05761l-.03776.00586-.06446.01042-.04427.00716-.0664.01042-.04493.00748-.06445.01042-.04362.00684-.06478.01074-.04915.00781-.06218.01009-.04036.00684-.07162.01172-.03548.00586-.07422.012-.026.00456c-.123.02018-.24837.041-.37109.06152l-.0332.00553-.06576.01107-.044.00749-.06738.01139-.04264.00716-.06283.01075-.0472.00813-.06608.01107-.04.00684-.07031.01237-.03613.00586-.0765.01334-.02572.00456-.08073.01367-.02962.00521-.08073.014-.01172.00228c-.13574.02343-.2692.04687-.40494.071l-.00489.00065-.08724.01563-.02343.00423-.08822.01562-.01562.00261-.08692.01562-.02409.00423-.082.01465-.02637.00489-.07877.01432-.03158.00553-.07845.01433-.02246.0039-.08691.016-.00879.00163c-.13119.02376-.27181.04948-.40267.07389l-.01009.00163-.08008.015-.0306.00586-.06836.0127-.042.00781-.071.013-.03451.00651-.07585.01433-.029.00553c-.02636.00488-.055.01009-.08138.0153l-.02343.00423-.08269.01563-.02409.00455-.08658.0166-.00456.001c-.17416.03288-.34017.06478-.514.09863l-.00586.001c-.0345.00684-.06282.01237-.09765.01888l-.00749.00163-.0905.01758-.0192.0039-.08692.01693-.01888.00358-.08626.01693-.02051.00423-.08919.01758-.01074.00195-.09538.01888-.00716.00163c-.278.055-.54557.109-.82292.16569l-.00748.0013c-.06934.01432-.13542.02767-.20476.042l-.00032.00033c-.27735.057-.55209.11426-.82878.17285-.00456.001.00228-.00065-.0026.00033l-.10157.02181-.002.00032-.09668.02051-.01237.0026-.095.02051-.00586.0013c-.0345.00716-.06445.01367-.099.02116l-.00423.001c-.27637.05924-.54915.11849-.82487.17936l-.00065.00033-.10287.02278c-.00488.001.00424-.001-.00065,0l-.09635.02149-.014.00293A149.48172,149.48172,0,0,0,108.15983,234.80208a42.66657,42.66657,0,1,0,84.48438,12.00554A64.20684,64.20684,0,0,1,256,192h0a64.24406,64.24406,0,0,1,17.97461,2.53548,42.66667,42.66667,0,0,0,23.86458-81.92838q-1.94238-.56592-3.90495-1.07976l-.01106-.00293q-.15136-.03954-.30274-.07877l-.0166-.00456-.14095-.03646-.00977-.00228-.15364-.03971-.00326-.001-.13964-.0358-.02735-.00684c-.0944-.02409-.19043-.04883-.28483-.07259l-.04329-.01107c-.03679-.00944-.07325-.01855-.11-.02767l-.03125-.00814-.13737-.0345-.03808-.00944c-.03549-.00912-.071-.0179-.10612-.02669l-.04493-.0114-.13281-.03287-.03646-.00912-.10254-.02572-.05208-.01269c-.03223-.00814-.06445-.016-.09668-.02376l-.04655-.01172c-.042-.01042-.08594-.02116-.12793-.03125l-.05566-.01367-.08269-.02051-.06022-.01465c-.03776-.00912-.07649-.01856-.11425-.028l-.06771-.01627-.0791-.01921-.06869-.0166-.07259-.01758-.10091-.02441-.07878-.01888-.07942-.01888-.05469-.013-.08268-.01986-.02019-.00488c-.06087-.01432-.11653-.02767-.17773-.042l-.04362-.01042-.08789-.02083-.03679-.00847c-.06119-.01465-.11881-.028-.18-.04232l-.02246-.0052-.095-.02246-.0319-.00749c-.10352-.02409-.19629-.04557-.29981-.06934l-.0332-.00781-.09928-.02279-.00358-.001c-.113-.02572-.21778-.04981-.33073-.07552l-.014-.00326a149.01721,149.01721,0,0,0-17.055-2.849H272.208c-.27409-.02962-.54232-.05794-.81673-.08593l-.01335-.00131c-.10775-.01106-.22461-.02278-.33236-.03385l-.02116-.002q-.228-.02295-.45638-.04493l-.01692-.00162c-.10808-.01042-.22038-.02116-.32845-.03125l-.02539-.00261-.32878-.0306-.01921-.00162c-.03938-.00358-.068-.00619-.10709-.0101l-.01726-.0013c-.10807-.01009-.21809-.01985-.32649-.02962l-.03255-.0026c-.1084-.00977-.21192-.01888-.32032-.02832l-.02571-.002c-.02963-.0026-.07227-.00651-.10157-.00879l-.029-.0026-.2067-.01758-.01074-.001-.09864-.00813-.03971-.00326c-.1084-.00911-.20345-.01693-.31218-.02571l-.03287-.00261-.10124-.00814-.026-.00195c-.06413-.00521-.12468-.01009-.1888-.015l-.03288-.00261-.0931-.00749-.04948-.00358c-.09863-.00781-.196-.0153-.2946-.02278l-.05306-.00391-.08626-.00651-.05208-.00391-.1569-.01139-.04981-.00358-.08919-.00651-.04785-.00358-.17383-.01237-.03581-.0026-.08333-.00586-.0599-.00424-.084-.00553-.0638-.00456-.13444-.00911-.06381-.00423-.08138-.00554-.06673-.00455-.11393-.00749-.08464-.00553-.07747-.00489-.07031-.00456-.07292-.00455c-.02962-.002-.05859-.00391-.08821-.00554l-.11329-.00716-.069-.00423-.07552-.00456-.07747-.00488-.098-.00586-.09571-.00553-.07226-.00456-.07552-.00423-.07064-.00423-.13053-.00749-.05892-.00326-.08594-.00488-.069-.0039-.08952-.00489-.08691-.00488-.09994-.00521-.06771-.00358c-.029-.00163-.056-.00325-.085-.00456l-.06022-.00325-.13542-.00716-.05338-.00261-.097-.00488-.05892-.00293-.10839-.00553-.068-.00326c-.03678-.00195-.07259-.00358-.10937-.00521l-.055-.0026-.10123-.00488-.05046-.00228c-.04557-.00228-.0918-.00456-.13737-.00651l-.05566-.00261c-.0306-.0013-.0625-.0026-.09343-.00423l-.05989-.0026-.12793-.00554-.05306-.00228-.10254-.00455-.06348-.00261-.0944-.0039-.05176-.00228-.13476-.00554-.06315-.00228c-.0306-.0013-.05925-.0026-.08985-.00358l-.05892-.0026-.13834-.00521-.04395-.00163-.10449-.0039-.05827-.00228c-.03353-.001-.06836-.00228-.10156-.00358l-.04916-.00163-.137-.00488-.05436-.002-.10189-.00325-.0498-.002c-.04753-.00131-.09506-.00293-.14258-.00456l-.03972-.0013-.11035-.00358-.055-.00163-.11458-.00358-.03939-.001c-.0459-.00163-.09082-.00293-.13672-.00423l-.05078-.0013c-.03516-.0013-.07031-.00228-.10547-.00326l-.04948-.0013-.13965-.00391-.04883-.0013c-.03515-.00065-.07063-.00163-.10579-.0026l-.04818-.0013-.139-.00358-.02474-.00033c-.04395-.0013-.08724-.00228-.13151-.00326l-.05306-.0013c-.03614-.001-.07064-.00163-.10678-.00228l-.04459-.0013-.14063-.00293-.05273-.001c-.03353-.001-.06706-.00163-.10059-.00228l-.055-.001-.14323-.00293-.02441-.00033-.123-.00227-.054-.001-.11133-.002-.03971-.00065c-.0485-.001-.09765-.00163-.14648-.00228l-.04069-.00065-.11654-.002-.04036-.00032c-.05046-.001-.09831-.00163-.14877-.00228l-.02832-.00033-.1276-.00162-.041-.00066-.13346-.0013-.01921-.00032-.15071-.00163-.04-.00033c-.03874-.00032-.0778-.00065-.11686-.0013l-.04362-.00032c-.04851-.00033-.09831-.00065-.14714-.00131h-.03092l-.1211-.001L257,106.66992l-.139-.001h-.013l-.15039-.00066-.043-.00032-.12109-.00033h-.03288l-.15006-.00065h-.03581c-.04,0-.08106,0-.1211-.00032H256Z" style="fill:#5cbeff"/><path d="M445.29,245.39062A42.6801,42.6801,0,0,0,403.26335,281.002a149.374,149.374,0,0,1-241.97754,90.46127,42.66659,42.66659,0,0,0-54.24707,65.87109,233.93627,233.93627,0,0,0,89.61165,45.76237h.00033c.35091.0918.70052.182,1.05208.27181l.00391.001c.35188.08984.70052.17806,1.05273.2666l.00358.00065c.05892.015.112.028.17057.043l.00651.0013.1696.04232.00586.00162c.35254.08757.69564.17221,1.04883.25847l.01465.00358.16569.04036.00586.00131c.29427.07161.58268.14127.87727.21158l.01075.00261.16634.03971.00748.002.1683.04.00814.002c.29524.07.58626.13834.88151.20735l.0026.00066c.05925.01367.111.02571.17025.03971l.01042.00228.16959.03939.00456.001c.29557.06836.58529.13509.88118.20248l.01075.00227c.05924.01368.10872.02474.168.03809l.00618.00163c.35514.0804.70313.15853,1.05924.23763l.0114.00228c.05924.01334.10319.02311.16276.03613l.015.00325c.29655.06576.58431.12859.88151.193l.00879.00195.16081.03483.02506.00554c.0446.00944.1084.02311.153.03287l.01953.00424c.05925.01269.10254.02181.16178.03483l.0127.0026c.238.05111.46191.09863.69987.14909l.02832.00586.14714.03092.02766.00586c.0446.00944.10319.02181.14812.03093l.02669.00586.16634.0345.00326.001c.17871.03711.35546.07389.53418.11068l.00585.0013.16309.03353.0293.00586c.04492.00944.09733.02018.14225.02929l.03711.00749.14681.02995.02116.00455c.2985.06088.5817.11784.88086.17774l.01953.00391c.04492.00878.1084.02148.15332.03059l.02767.00521.15137.03028.02181.00423c.23925.04752.46875.09245.708.13932l.00977.00163.165.03222.0179.00359c.05241.01009.10417.01985.15658.03027l.02376.00456c.0599.01139.09863.01888.15853.0306l.0153.00292c.23958.0459.472.0905.71191.13575l.00879.00162c.05274.0101.11.02084.16244.0306l.02506.00489.15365.02864.02213.00423c.06022.0114.10319.01954.16309.0306l.01074.002c.23991.04492.47135.08756.71159.13183l.0179.00326c.04492.00814.11133.0205.15658.02864l.02539.00456c.04525.00846.10319.01888.14844.027l.0306.00553c.23307.04265.474.08594.70735.12761l.00944.00162.16862.03028.01367.00228.16081.02864.02214.00391c.06022.01074.10156.0179.16178.02832l.0127.00228.1748.03092.0013.00033c.181.03157.36068.06282.54134.09407l.00326.00065.1696.0293.02343.00391.15365.02636.02506.00424.153.02636.02474.00423c.24121.041.47005.07976.71159.12012l.01367.00228.16243.027.02344.00391.14616.02441.03906.00651.14258.02344.03125.00521c.06055.01009.10221.01692.16244.02669l.01041.00163c.18132.02994.35547.05826.53711.08756l.01725.00261.1556.02539.03386.0052c.04557.00749.09733.01563.14258.02312l.03385.0052c.04557.00749.10026.01595.14551.02344l.03157.00488q.352.05616.70443.111l.03678.00586.14226.02213.03515.00554c.04558.00683.0944.01432.14.02148l.03808.00586c.04558.00716.09864.0153.14421.02214l.0319.0052.15788.02409.01725.00261c.12142.01855.2321.03548.35352.05371l.03385.00521.14258.02148.03873.00586.13314.01986.05209.00781.12565.01888.0459.00651.1429.02148.02995.00424.35677.05273h.0013c.06087.00879.11458.01693.17546.02572l.02474.00358.14876.02148.03776.00553.14388.02084.0319.00456.14518.02083.03418.00488.15983.02279.013.002c.12175.01725.24024.03386.362.05111l.002.00032.17155.02409.03645.00521.13965.01921.04.00586c.04557.00618.0905.01237.13639.01888l.04525.00618.13379.01856.04037.00553c.04589.00618.10123.01367.1468.02018l.0293.00391c.12175.0166.23535.0319.35742.0485l.01009.0013c.06088.00847.10482.01433.16569.02246l.03191.00423c.04589.00619.096.013.14192.01889l.04232.00585c.0459.00586.09538.0127.14128.01856l.03353.00456.14648.01953.03158.00423c.05338.00684.10546.01367.15885.02083l.0179.00228c.12207.01595.23535.0306.35775.04655l.02637.00358.14909.01921.04362.00553.12955.0166.05209.00651.123.01595.058.00717.12239.01562.04883.00619c.0459.00585.10514.01334.151.01888l.02246.00292.35677.0446.03028.00358c.0459.00586.10058.01237.14648.01823l.042.00521c.0459.00553.08659.01042.13249.01628l.04818.00586.13086.016.04817.00585.12956.01563.0472.00553c.0459.00554.10547.013.15137.01823l.02246.00293c.12272.01465.23535.028.35775.04265l.02929.00325.14486.01725.04655.00554.13216.0153.0446.00521c.0459.00553.08594.01009.13183.01529l.05046.00586.13184.0153.04231.00489.15593.0179.02018.00228c.12305.014.23372.02669.35677.04036l.03548.00424.1416.01595.04362.00455.13249.015.04753.00521c.04622.0052.08919.01009.13541.015l.04167.00456.14649.01627.029.00326.3597.03906.01823.00195.15755.01693.04069.00423.13607.01465.04882.00521.13054.01367.04557.00488.13184.014.05045.00521.13444.014.04037.00423c.06152.00618.113.01172.17448.0179l.00162.00033c.06185.00618.11849.012.18.01855l.03287.00326c.04623.00455.09115.00944.13737.014l.06348.00652.11524.01171.06184.00619.11394.01139.06217.00619.12012.012.05631.00554c.03874.0039.09115.00911.12956.01269l.04525.00456.35384.0345.04427.00423c.03841.00359.09147.00879.12988.0127l.05925.00553.11588.01107.06543.00619.11752.01106.05306.00521.13053.01205.04818.00455c.04622.00456.10123.00944.14778.014l.0267.00228.36035.0332.0306.00293.14355.013.05078.00456.12663.01139.056.00489c.04655.00423.07487.00683.12142.01074l.05534.00521.13574.01172.03906.00358.16179.01432.015.0013c.124.01074.23535.02018.35937.03093l.04721.0039c.03873.00358.08691.00749.12565.01075l.06282.00553.11426.00944.0651.00553.11524.00977.05957.00488c.03874.00326.08073.00684.11946.00977l.06055.00521c.04655.00358.0918.00748.13835.01139l.03515.0026.17676.01465.03321.00261.14681.01171.04557.00358c.04655.00391.08073.00652.12728.0101l.0625.0052.11784.00912.05859.00456c.03906.00325.08236.00651.12109.00944l.05664.00455.13249.01009.04427.00359.14388.01106.03581.00261c.06217.00455.11426.00879.17611.01334l.03678.00261c.04655.00358.09245.00716.139.01041l.05957.00456.11686.00879.06348.00456.11425.00846.06641.00488.11589.00814.05794.00423.12956.00944.0485.00326c.12435.00911.23014.0166.35449.02506l.04264.00293c.03907.00293.09733.00684.1364.00944l.05371.00391.12109.00814.0625.00423.11947.00814.05827.0039.12337.00847.05338.00358.1416.00911.03549.00261c.12467.00814.23274.015.35742.02311l.05013.00326.12435.00781.06868.00423.10938.00716.06738.00423c.03092.00163.08171.00489.113.00684l.0638.0039c.03874.00261.08528.00521.12435.00782l.05078.00293c.03906.0026.096.00586.13509.00814l.04525.00292c.12467.00749.22949.01368.35416.02084l.05274.00325.12565.00716.06315.00391c.03906.00195.07031.00391.10937.00619l.0752.00423.10514.00586.06934.0039.11816.00684.05664.00293.14584.00814.03125.00162c.0625.00359.11751.00651.17969.00977l.02506.0013.151.00814.05794.00326.12012.00618.06511.00326c.03906.00227.07356.0039.11263.00585l.069.00359.10547.00553.07486.00358c.03907.00228.07357.00391.11264.00586l.06087.00293.13932.00684.03841.00195c.0625.00325.11752.00586.18.00879l.02148.001.15234.00749.06153.00293c.03938.00163.0804.00358.11946.00553l.05925.00261.12077.00586.06054.0026c.03907.002.08106.00391.12045.00554l.05891.0026c.03907.00195.08887.00391.12793.00586l.04948.00228c.055.00228.10124.00423.15593.00683l.02344.001c.0625.0026.11718.00488.18.00781l.03483.00131.14225.00618.05892.00228.11686.00488.07.00293.11.00456.06673.0026.1136.00456.06771.0026.11752.00489.05826.00228c.03939.0013.097.00358.1364.0052l.0485.00163c.0625.00261.10872.00423.17122.00651l.04851.002.1289.00455.06315.00228c.03907.00163.07618.00293.11556.00423l.069.00261.10808.00358.07064.0026.11718.00391.05827.002c.04688.00163.08952.00326.13672.00456l.04134.00163c.055.00162.10872.00358.16341.0052l.03581.00131c.04687.0013.1097.00358.1569.00488l.06706.00228.11035.00325.07227.00228.10677.00326.07617.00228c.03157.001.07031.00227.10189.00293l.07421.00227.10775.00326.07259.002c.03907.0013.08627.00261.12565.00358l.04753.00131.17936.00488.02474.00065.15267.00423.06673.00163.10775.0026c.02767.001.05143.0013.07878.002l.10156.0026.07845.002.10026.00261.07519.00162.11068.00261.06836.00163.1263.00293.04981.001.1761.00391.05014.001.1302.00293.06511.0013.111.002.07487.00163.10352.002.07942.00163.09961.00163.07585.00162.112.002.0664.001.14128.00261.03451.00065c.06282.001.11458.00163.17773.00293l.05273.00065.12858.002.06055.001.11686.00163.06966.001c.03158.00065.07878.00131.11036.00163l.07259.001.10547.0013.07324.001c.03939.00065.0765.001.11588.0013l.06218.001c.04752.00032.10417.001.15137.00162l.026.00033.18.002.04395.00033.13476.0013.06738.00065.10808.001.07552.00065.10612.001.07487.00066c.03157.00032.07454.00065.10612.00065l.07129.00065.11653.00065.06315.00032c.05534.00065.11784.001.17286.00131h.00325l.181.001h.04818l.13216.00065.06185.00033.11393.00032.07292.00033c.0319,0,.07812,0,.1097.00033h.071l.1097.00032h.06966c.03972,0,.085,0,.12435.00033h.46582c.03972-.00033.0905-.00033.13021-.00033H256.43l.11328-.00032h.0726c.0319-.00033.07519-.00033.10709-.00033l.07943-.00033.10417-.00032.07259-.00033.112-.00065.07226-.00032.11263-.00033.06641-.00065c.03971,0,.08594-.00033.12532-.00065l.058-.00033c.06315-.00032.11556-.00065.17871-.0013h.03646c.0472-.00065.09505-.001.14257-.0013l.07-.00065c.03971,0,.07227-.00033.11165-.00065l.07422-.00065.10645-.001.07617-.001.10645-.001.07487-.00065.10644-.00131.07422-.00065c.03939-.00065.07031-.001.1097-.0013l.07357-.001c.03157-.00032.07226-.00065.10384-.0013.02116,0,.05664-.00065.0778-.001l.11784-.00131.06152-.001c.06315-.00065.11523-.00163.17839-.00228l.04427-.00065.13672-.00228.06217-.00065.11719-.002.07454-.0013.10547-.00163.07422-.0013.10937-.00163.07422-.0013.10352-.002.07845-.0013c.03939-.001.0612-.0013.10058-.002l.08269-.00162.10286-.002.07357-.00162c.0472-.00065.09017-.00163.13737-.00261l.04557-.001.17448-.00359.06836-.00162.11068-.00228.07389-.00163.10938-.0026.07519-.00163.10124-.00228.08235-.00195.097-.00261.08594-.002.09017-.00228.08952-.00228.0944-.00228.08463-.00227.10189-.00261.07552-.00228.17481-.00455.03385-.001.14811-.00423.06869-.002c.03906-.001.06966-.002.10872-.00325l.07943-.00228.10026-.00293.084-.0026.09473-.00293.08236-.00228.10058-.00326.07975-.0026.10254-.00326.0752-.00228.11491-.0039.0638-.00228c.05469-.00163.1123-.00358.16732-.00553l.00813-.00033c.0625-.002.12012-.00391.183-.00618l.0459-.00163.13411-.00456.06641-.0026.1123-.00391.07194-.0026.10873-.00424.07812-.00293.09538-.00358c.028-.001.05892-.00195.08691-.00325l.097-.00358.07812-.00293.11035-.00456.06674-.0026.12109-.00489.06022-.00227.138-.00554.04134-.002.18-.00749.0358-.0013.14453-.00619.05339-.00227.12663-.00554.06152-.0026.11719-.00521.06706-.00293.11653-.00521.0612-.00293c.03906-.00163.083-.00358.12207-.00553l.0599-.00261c.03906-.002.08138-.0039.12044-.00553l.06185-.00293.11523-.00553.06706-.00326c.125-.00586.22852-.01074.35352-.01693l.06933-.00358c.03125-.0013.07715-.00358.1084-.00521l.08105-.0039.096-.00488.08138-.00424.10287-.0052.07422-.00391.10254-.00521.0791-.00423.10156-.00521.07715-.00423.10482-.00553.07291-.00391c.03906-.00228.08854-.00488.12761-.00684l.04948-.00293c.0625-.00325.11523-.00618.17773-.00976l.04036-.00228.13965-.00781.05892-.00326.11882-.00683.07226-.00391.10645-.00619.07324-.00423.10612-.00618.07389-.00423.1084-.00651.06869-.00424c.03906-.00227.07-.0039.109-.00651l.07422-.00423.11035-.00683.06543-.00391.13411-.00814.04492-.00293.179-.01107.03581-.00227.13834-.00879.07683-.00489c.03125-.00195.07031-.00423.10123-.00651l.07813-.00488.10156-.00651.07422-.00488c.03125-.002.0765-.00489.10775-.00716l.07194-.00456.10547-.00716.07324-.00489c.03906-.00227.07422-.00488.113-.00748l.06381-.00423.12923-.00879.04785-.00326.17415-.01172.00489-.00032c.06217-.00456.11686-.00814.179-.0127l.05111-.00358.12793-.00879.06087-.00423.11654-.00846.07161-.00521.10612-.00749.07227-.00521.10709-.00781.07227-.00521.111-.00814.06478-.00488c.03906-.0026.07943-.00586.11849-.00879l.0612-.00456c.03906-.0026.08984-.00651.12858-.00944l.04948-.0039c.05436-.00391.09375-.00684.14811-.01107l.06868-.00521.13965-.01074.05567-.00423.11946-.00912.07259-.00586.1071-.00813.071-.00586c.03874-.00293.06836-.00521.1071-.00847.02083-.00162.04915-.00358.07-.00553.03092-.00228.08333-.00651.11426-.00912l.0638-.00488.111-.00911.07-.00554.1123-.00911.06576-.00521.12923-.01074.04687-.00391c.06185-.00521.11719-.00976.179-.01465l.01693-.00162.1595-.01335.05632-.00456.12207-.01041.06152-.00521c.03874-.00326.0778-.00651.11654-.01009l.06543-.00554.11588-.00976.06088-.00554c.03873-.00325.07779-.00651.11653-.01009l.06478-.00553c.03874-.00326.07975-.00684.11849-.01042l.05827-.00521c.03841-.00325.083-.00716.12142-.01074l.05924-.00521c.04623-.0039.10515-.00911.15137-.01334l.02376-.00228.181-.01628.01921-.00163.1608-.01464.03939-.00359.13477-.01236.05892-.00554.12012-.01107.06184-.00553.11589-.01107.06185-.00553.12012-.0114.05957-.00553.1136-.01074.06706-.00651c.03841-.00358.083-.00781.12174-.01172l.054-.00521c.12337-.01172.22982-.02213.35319-.03418l.05567-.00521.12044-.012.07031-.00684.10612-.01041.07324-.00717.10319-.01041.07715-.00781.099-.00977.07747-.00781.098-.01009.08072-.00814.10515-.01074.06575-.00651.12826-.01335.0498-.00521c.12305-.01269.22949-.02344.35254-.03646l.05111-.00553.12858-.01335.05469-.00586.11979-.01269.0651-.00684c.03841-.00423.07455-.00814.113-.012l.0664-.00716.1084-.01172.07-.00749.11165-.012.06478-.00717.12207-.01334.05176-.00554.151-.0166.02637-.00293.17969-.01985.0179-.002c.05371-.00618.10384-.01172.15755-.01757l.05209-.00586.124-.014.0612-.00684c.03841-.00455.07845-.00879.11653-.01334l.06055-.00684.11686-.01335.06478-.00716.112-.013.06413-.00749c.03841-.00423.07715-.00878.11556-.01334l.06152-.00716.13444-.0153.03874-.00456.16667-.01953.012-.00163.18-.02116.02344-.00293c.04622-.00521.10449-.01237.15072-.01758l.05273-.00651c.03841-.00455.08626-.01009.12467-.015l.06185-.00716.10873-.01335.07389-.00879.10352-.01237.07259-.00911c.03808-.00456.069-.00814.10742-.013l.06478-.00781.12142-.015.05469-.00651.13476-.01693.04037-.00488c.12272-.0153.234-.029.35644-.0446l.03353-.0039.13965-.0179.06054-.00749.11263-.01432.0726-.00912.10286-.01335.07064-.00878.10775-.014.06933-.00879.10807-.014.06641-.00846c.03809-.00521.0765-.01009.11491-.015l.06087-.00813c.0459-.00586.10645-.01368.15235-.01986l.01888-.00228c.12239-.01628.237-.03125.35905-.04753l.0345-.00455c.0459-.00619.08952-.012.13542-.01791l.0625-.00846.11653-.01563.05925-.00813c.03841-.00489.07715-.01009.11523-.0153l.06348-.00879c.03809-.00488.0778-.01042.11589-.01563l.05891-.00781.12338-.01693.05045-.00683.14258-.01953.03223-.00456.17643-.02441h0l.182-.02507.00813-.0013c.06088-.00847.10482-.01432.16569-.02311l.04883-.00684c.03809-.00521.08724-.012.12533-.01758l.057-.00781c.03809-.00553.082-.01172.12012-.01693l.05794-.00846.12077-.01693.05241-.00749.124-.0179.057-.00814c.03809-.00521.08236-.01172.12044-.01725l.054-.00781.13249-.01888.043-.00651c.12174-.01758.22851-.03288.35026-.05078l.04687-.00684.13184-.01953.04427-.00651c.04557-.00651.08659-.0127.13216-.01953l.04818-.00716c.04557-.00651.083-.01205.12858-.01888l.05306-.00782.11621-.01758.06412-.00944.11589-.01757.05827-.00847.11979-.01823.055-.00813c.04558-.00717.09245-.014.138-.02116l.03646-.00554c.06055-.00911.11459-.01725.17546-.02669l.01562-.00228.16146-.02474.03548-.00553c.04525-.00684.09408-.01432.13933-.02149l.04915-.00748.12565-.01953.05632-.00879c.03776-.00586.07682-.01172.11458-.01791l.06673-.01041.112-.01726.05859-.00944.11947-.01855.057-.00912.12988-.0205.042-.00651.15983-.02539.015-.00261c.12109-.0192.23339-.03711.35449-.05664l.03515-.00553c.04558-.00749.09538-.0153.14063-.02279l.04394-.00716c.04558-.00716.082-.01335.12761-.02051l.057-.00944.11817-.0192.05924-.00977.11263-.01823.06381-.01042.11621-.0192.05664-.00944c.03776-.00619.08821-.01432.126-.02084l.04786-.00781c.12076-.02018.22981-.03808.35058-.05827l.02279-.0039.15332-.02572.03581-.00618.13671-.02279.05274-.00911c.03776-.00619.083-.014.12077-.02051l.057-.00944c.04525-.00781.07129-.01237.11654-.01986l.05957-.01009.12207-.02116.0485-.00814c.03776-.00651.0918-.016.12956-.02213l.0472-.00814.14811-.02572.02344-.0039c.12077-.02084.23535-.041.35579-.06185l.016-.00293.15559-.027.04558-.00814c.03776-.00651.09147-.016.12923-.02278l.0498-.00879c.04525-.00782.07845-.01368.12338-.02181l.05371-.00944.12207-.02149.05534-.01009.1123-.01986.06543-.01171.11393-.02051.057-.01009.15495-.028.01432-.0026c.12012-.02149.23242-.04167.35254-.0638l.03548-.00619c.05241-.00976.08757-.01628.1403-.02572l.03874-.00716c.04492-.00813.08984-.01627.13476-.02474l.04753-.00846.12728-.02344.04817-.00911.12338-.02279.05566-.01009.12533-.02344.04459-.00814c.03744-.00716.09473-.01757.13216-.02473l.0446-.00814c.06022-.0114.10124-.01888.16113-.03028l.01009-.002c.0599-.01107.11752-.02181.17741-.0332l.01335-.00261.16081-.03027.03743-.00716.13216-.02507.058-.01106.1136-.02149.06511-.01237c.02994-.00586.07389-.01432.10384-.01986l.07161-.01367.10189-.01985.07064-.01335.10351-.02018.06674-.0127c.03743-.00748.08528-.0166.12272-.02376l.04687-.00912c.11979-.02343.22624-.04394.346-.06738l.03939-.00781.13216-.026.05925-.0114.11035-.02181.067-.01334.1045-.02051.07226-.01432c.02995-.00619.06869-.01367.09863-.01953l.071-.01433.10775-.02148.06119-.012.12207-.02441.04786-.00977.12532-.02506.05111-.01042c.11946-.02409.222-.04459.34147-.069l.04655-.00944.12565-.02539.0625-.013c.03743-.00749.0651-.013.10254-.02083l.0778-.01595.09538-.01953.07291-.015.10222-.02116.0651-.01334.113-.02344.05957-.012.11263-.02344.05924-.01237.12663-.02637.04459-.00944c.05958-.01237.11-.02279.16993-.03548l.03711-.00781c.04459-.00912.08919-.01856.13379-.028l.05924-.01237.10937-.02311.07064-.015.10222-.02149.06478-.014.10807-.02278.06673-.01433.10449-.02213.06543-.014.10775-.02311.06445-.01367c.03711-.00814.08073-.01758.11784-.02539l.05046-.01074c.05175-.0114.08951-.01954.14127-.0306l.03093-.00651c.05924-.013.113-.02474.1722-.03744l.028-.00618c.0446-.00944.09375-.02019.13835-.02995l.06217-.01367.11231-.02442.05892-.013.10905-.02376.06738-.01465.10384-.02279.06771-.015.10286-.02279.06739-.015.11-.02409.05957-.01335.12305-.02734.04655-.01042.3418-.07617.04785-.01074c.03711-.00846.083-.01888.12011-.027l.06316-.01432.10709-.02409.06836-.01563.10254-.02311.06478-.01465.1084-.02474.06347-.01432.11133-.02539.05632-.013.12272-.028.04752-.01075c.05176-.012.11-.02539.16179-.03711l.00488-.0013.17448-.04.02865-.00683c.05175-.01172.09114-.02084.1429-.03288l.04785-.01107c.03679-.00879.084-.01953.12077-.028l.05762-.01367.11556-.0267.05794-.01367c.03678-.00846.07064-.01628.10742-.02506l.06706-.01563.10807-.02539.0599-.014.11328-.02669.056-.01335c.03678-.00846.08659-.02018.12337-.029l.04688-.01107c.05143-.01237.08724-.02083.139-.03287l.03125-.00749.17188-.041.01465-.00325.15429-.03711.04916-.01172.11914-.02832.05859-.01432.10938-.026.0677-.01628c.03679-.00911.06674-.01628.10352-.02507l.0612-.015c.03678-.00879.07519-.0179.112-.027l.06022-.01465.1097-.02636.05957-.01465.10775-.026.0651-.01595c.04427-.01107.10775-.02637.152-.03711l.012-.00326c.05892-.01432.11133-.027.17025-.04166l.03971-.00977c.03679-.00912.09473-.02311.13119-.03223l.05176-.01269.1136-.028.06381-.016.10872-.027.06152-.015c.0293-.00749.07585-.01921.10547-.02637l.06511-.01627.10612-.02637.06412-.01595.10612-.02669.06153-.0153.12988-.03256.03646-.00944c.11751-.02929.22591-.057.34342-.08658l.02084-.00521.14616-.03711.04882-.01237.11882-.03027.05729-.01465c.03678-.00912.07227-.01823.10905-.02767l.06575-.01693.10352-.02637.06413-.0166.10221-.026.07-.01823.10384-.02669.06087-.01563.12761-.03287.04-.01042c.1097-.02865.2246-.05827.33431-.08692l.06152-.01595c.03646-.00976.07194-.01888.1084-.02832l.05989-.01595.1084-.02832.06152-.016c.03646-.00976.0752-.01985.11166-.02929l.05436-.01433.1123-.02962.05958-.01562.11816-.03158.04655-.012.13835-.03679.029-.00781c.11686-.03093.22688-.06022.34342-.09147l.01009-.00261.15918-.04264.03451-.00911c.04362-.01172.08626-.02312.12988-.03516l.05729-.0153.11035-.02962.05957-.01628.10645-.02864.06543-.01758.10709-.029.05665-.01563.12044-.03255.04655-.0127c.04362-.012.09928-.027.14323-.03906l.02246-.00618.3444-.0944.00944-.00261.1569-.043.03939-.01106.12988-.03581.043-.01172c.04362-.01237.08073-.02246.12435-.03451l.04818-.01334.1263-.03516.04036-.01139c.04362-.01205.08171-.02246.12533-.03483l.04785-.01335.12174-.03385.04688-.01335c.04362-.012.09831-.02734.14193-.03971l.02408-.00651c.11622-.03288.22168-.0625.33757-.09506l.04492-.01269.12077-.03418.05729-.01628.10905-.03092.06543-.01856.09994-.02864.06673-.01888.10254-.0293.06315-.0179c.03613-.01042.07422-.02149.11067-.03158l.05339-.01562c.03646-.01009.0804-.02279.11654-.03321l.05306-.0153c.04329-.01237.0944-.027.13769-.03971l.02637-.00749.33854-.098.03483-.01009c.0433-.01237.085-.02441.12826-.03711l.05371-.01562.11621-.03386.05078-.015c.04329-.01237.07292-.02116.11621-.03386l.05208-.0153.11719-.03417.05208-.0153.11556-.03386.05144-.0153c.04329-.01269.09147-.02669.13509-.03971l.02864-.00846c.11556-.03386.22331-.06576.33887-.10027l.02116-.00618c.04329-.0127.09993-.02962.14323-.04264l.05045-.015.11556-.0345.05469-.01628.11166-.0332.05859-.01758.11-.03288.054-.01627.11524-.03451.05175-.01562.12761-.03842.03515-.01074c.05046-.0153.09571-.029.14616-.04394l.02181-.00684c.11524-.03483.22006-.06673.33529-.10156l.03711-.01139.13216-.04037.03906-.01172c.043-.01334.08138-.02506.12468-.03808l.05273-.01628.11263-.03451.057-.01757.10872-.03321.057-.01757.11523-.03549.04948-.0153.12044-.0371.04623-.01433.13281-.04134.0332-.01009.16569-.05143.02344-.00749.14225-.04427.0446-.014.12044-.03743.05339-.01693.11426-.03548.05045-.01595.11491-.03613.05567-.01758c.043-.01335.068-.02116.111-.03483l.05338-.01693.11459-.03613.05175-.01628.12728-.04036.03549-.01107.14713-.04688.02018-.00618c.11426-.03646.22038-.07031.335-.10677l.028-.00912.13834-.04427.03744-.012.125-.04.04915-.01563c.043-.014.07487-.02441.11784-.03808l.04916-.016c.043-.01367.07259-.02311.11556-.03711l.0511-.0166.11914-.03842.04623-.015.12955-.042.03418-.01107c.17123-.05566.33008-.10742.50131-.16341l.02832-.00944.13346-.04362.04818-.016.11718-.03841.04818-.01563c.04264-.01432.07455-.02474.11719-.03873l.05078-.01693.11686-.03841.04688-.01563.11849-.03906.04882-.01628c.04981-.0166.10547-.03515.15528-.05143l.00293-.001c.11393-.03808.22526-.07519.33919-.113l.0153-.00521.14323-.04818.0498-.0166c.03581-.01172.08236-.02767.11817-.03939l.04752-.01627.11329-.03776.05566-.01888.112-.03776.05143-.01726.11361-.03841.05078-.01725.124-.042.03906-.01335.155-.05241.00716-.0026c.11361-.03874.22006-.07487.33334-.11361l.03515-.012.127-.04362.04817-.01628.11524-.03971.05306-.01823.11361-.03906.04785-.0166.11458-.03939.05436-.01888c.04232-.01465.07324-.02507.11589-.04l.04427-.0153c.03548-.012.08724-.03028.12272-.04232l.04329-.0153c.11329-.03906.21517-.07454.32813-.11393l.01823-.00651.14583-.05078.03711-.013.124-.04362.04786-.01661c.04231-.01464.07747-.027.11979-.042l.04524-.01595.112-.03939.058-.0205.109-.03842.05273-.01855.11458-.04036.0472-.01693.13347-.0472.02832-.01009c.113-.04.21842-.07748.33105-.11784l.01563-.00554.14778-.05273.03549-.0127.12435-.04427.05045-.01823.10938-.03938.05957-.02116.10742-.03874.04948-.0179c.042-.015.07584-.02735.11816-.04265l.04623-.0166.1302-.04687.02865-.01042.14323-.05208.02246-.00814c.11263-.04069.21549-.07813.3278-.11914l.0345-.01237c.042-.0153.085-.03093.127-.04655l.05176-.01888.10514-.03841.0625-.02279.10482-.03841.05468-.02018.10677-.03906.05567-.02051.11035-.04069.05208-.01921c.042-.01562.08073-.02995.12272-.04525l.03549-.01334c.056-.02051.09733-.03581.15332-.05664l.00911-.00326.16667-.06185c.00651-.00228-.00261.001.00358-.0013.056-.02083.10254-.03809.15853-.05924l.03027-.01107.13086-.04883.04525-.01693.11621-.04329.04687-.01758c.042-.01562.07585-.02832.11784-.04427l.04492-.0166c.042-.016.083-.03125.125-.04688l.03321-.01269c.042-.01563.09244-.03451.13444-.05046l.03027-.01139c.04883-.01856.09277-.03483.1416-.05339l.02084-.00781c.11165-.04232.21972-.083.33138-.12532l.00032-.00033.15593-.05924.0498-.01888.11-.042.056-.02116.10677-.04069.05143-.01985.11426-.04362.04752-.01823.11231-.043.05143-.01986.112-.043.04948-.01888c.042-.01627.08984-.0345.13151-.05078l.02637-.01009c.11132-.043.21289-.082.32421-.12532l.03646-.014.12663-.04916.03776-.01464c.04167-.01628.08171-.0319.12337-.04786l.04493-.01757.11263-.04395.056-.02181.10058-.03906.06315-.02474.10287-.04037.05273-.0205c.03451-.01367.08073-.0319.11556-.04525l.04525-.0179.126-.04948.03451-.01368.1582-.06217.03809-.015.124-.04916.04558-.0179.112-.04427.058-.02311.10254-.04069.05989-.02377.098-.03873.06218-.02474c.0345-.014.06738-.027.10189-.04069l.05631-.02246.10612-.04232.05306-.02116.11784-.0472.04036-.01628c.111-.04427.21224-.085.32292-.12955l.012-.00489.14355-.05761.05436-.02214.10482-.04232.05631-.02278.10157-.041.06412-.026.09408-.03809.06413-.026.0957-.03874.06315-.02571c.03451-.01433.06771-.02767.10222-.04167l.054-.02213.10515-.043.05664-.02312.31608-.12923.03027-.01269.12891-.05274.04557-.01888c.0345-.014.07585-.03125.11-.04524l.05664-.02344c.0345-.014.07129-.0293.10546-.04362l.05241-.02149.1058-.04362.05436-.02246.10775-.04492.05208-.02148.10221-.04232.05892-.02474.11068-.0459.0459-.0192c.1097-.04558.2054-.08562.3151-.13151l.04948-.02084.10645-.04427.06282-.02669.09668-.04037.058-.02441.09993-.042.06348-.0267.09082-.03841.06868-.029.08464-.03581.07487-.03157.09082-.03841.0612-.026.113-.04786.04492-.0192c.055-.02311.10352-.04395.15821-.06706l.00879-.0039c.05468-.02312.09179-.03907.14648-.0625l.04557-.01921c.03418-.01465.08106-.03483.11524-.04915l.04687-.02019.10742-.04589.057-.02442.10221-.04394.05632-.02409.09928-.04265.05925-.02571.10644-.04557.04883-.02116c.03418-.01465.084-.03614.11816-.05111l.03874-.0166.319-.138.01335-.00586.14193-.06185.04394-.01888.112-.04883.05436-.02376c.03418-.015.06836-.02963.10222-.0446l.057-.02474c.02735-.012.07031-.03092.09766-.04264l.06445-.02832.09473-.04134.05762-.02539.10677-.04688.0498-.02181c.04069-.0179.095-.04167.13607-.05989l.0166-.00717c.10872-.04785.21191-.09342.32064-.1416l.02409-.01074c.041-.0179.08821-.03874.1289-.057l.05046-.02213c.03385-.015.07422-.03288.10807-.04818l.05371-.02376c.03386-.015.06348-.028.09733-.0433l.06446-.02864.09472-.042.06055-.027.096-.043.05892-.02637c.03418-.015.07487-.0332.10872-.0485l.0459-.02051c.03418-.0153.08464-.03808.11849-.05306l.03841-.01725c.10872-.04883.2041-.09147.3125-.1403l.0459-.02083.10872-.04883.05632-.02572.097-.04362.06315-.02864.09864-.0446.05013-.02279.10807-.04882.05143-.02344.10417-.0472.05273-.02409.10026-.04557.05827-.0267.30762-.1403.03353-.01562c.0472-.02149.07519-.03418.12239-.056l.05013-.02311.10189-.04655.05925-.02735.10058-.04622.05437-.02507c.02669-.01236.071-.03255.098-.04524l.05989-.02767.09831-.04525.05664-.026.10059-.04688.05338-.02474c.04037-.01855.07845-.03613.11882-.055l.03483-.01595.3138-.14616.02083-.00976c.0472-.02181.08627-.04.13347-.06218l.04427-.02051c.03353-.016.07584-.03548.10937-.0511l.05241-.02474c.03353-.01563.068-.03158.10156-.04753l.05664-.02637.10189-.04785.04981-.02343.10416-.04883.05567-.02637c.03353-.01562.07129-.03353.10482-.04948l.04655-.02181.11686-.05534.03939-.01823c.10709-.05078.20019-.09505.30761-.14583l.0446-.02116c.0332-.016.07845-.03711.112-.05306l.04622-.02213.10775-.05111.04948-.02376.10807-.05144.04753-.02278c.04-.01888.0664-.03158.10644-.05078l.04981-.02377.10774-.05143.04753-.02279.11882-.057.03222-.01563.14258-.06836.013-.00651c.05371-.02571.10287-.04948.15625-.07519l.02767-.013c.04655-.02279.07878-.03809.12565-.06088l.04427-.02115c.03321-.01628.07845-.03809.11166-.054l.04752-.02311.10547-.05111.05176-.02506.10221-.04948.054-.02637.10417-.05046.04589-.02246c.04-.01953.07455-.03613.11426-.05566l.04134-.02018c.04-.01921.0778-.03776.11784-.0573l.03613-.0179.13217-.06445.02311-.0114.1569-.07682.00391-.00195.14485-.071.04785-.02377c.03321-.01627.07422-.03613.10743-.05273l.0498-.02442c.0332-.01627.06836-.03352.10156-.05013l.05306-.026.10482-.05176.04948-.02441.10059-.0498.05468-.027.10515-.05209.04655-.02311.11523-.05729.03743-.01855c.10612-.05274.2015-.10026.3073-.153l.03255-.01628c.04622-.02311.07552-.03743.12174-.06087l.03711-.01855.11621-.058.04493-.02278c.04-.01986.0677-.03353.10742-.05371l.04817-.02409.10612-.05339.04753-.02376.1097-.05534.04264-.02148.11-.05534.04557-.02311.13575-.06836.013-.00651c.10579-.05339.20768-.10515.31347-.15886l.01335-.00683c.03971-.02019.09375-.04753.13314-.06771l.04915-.02474.10449-.05339.04851-.02474.10416-.05306.05013-.02539.10222-.05241.05273-.02669c.03288-.01692.06185-.0319.09473-.0485l.05989-.03092c.03288-.01661.06673-.03418.09961-.05111l.04948-.02539.13672-.07.01237-.00651c.05241-.027.10286-.05273.1556-.08008l.012-.00618c.04623-.02377.09213-.0472.138-.071l.04167-.02148c.03288-.01725.07943-.04134.11231-.05827l.04166-.02148.1084-.056.05046-.02637.10091-.05208.05306-.02767.09505-.04948.05924-.0306.10254-.05339.0433-.02246.11784-.06152.03515-.01823.13412-.07031.0179-.00912.14844-.0778.05078-.02669c.03288-.01693.06868-.03581.10156-.05306l.05469-.029c.03288-.01693.06055-.03158.0931-.04883l.06347-.0332.08822-.04655.0625-.03288c.02637-.01367.05957-.03125.08561-.04525.02377-.01237.04134-.02148.06478-.03418l.09212-.0485.05632-.03.09342-.04915.058-.03092c.03287-.01726.07421-.03907.10709-.05665l.041-.02148.30013-.15983.04232-.02246c.03287-.01758.07649-.04069.10905-.05827l.04622-.02441c.03255-.01758.07292-.03907.10547-.05632l.04687-.02506.10157-.05437.05729-.03059.09114-.04883.05762-.03093.09342-.05045.058-.03093.099-.05338.04817-.02572.10026-.054.05371-.029c.05209-.028.09408-.05078.14584-.07877l.029-.01563.11751-.06347.05827-.03158.09277-.05046.06478-.03515.07683-.04167.07747-.042.07389-.04.07129-.03906.0778-.04232.06934-.03776.08463-.0459c.02311-.013.03972-.02181.06315-.0345.02572-.01433.05957-.03288.08562-.04688.01725-.00976.04557-.02506.06315-.0345l.10807-.05957.03841-.02084.14909-.0817.02865-.01595c.03906-.02116.07942-.04362.11848-.06511l.05339-.0293.0931-.0511.06217-.03451.0892-.04915.05631-.03125c.026-.014.06511-.03581.09082-.05013l.0625-.03418.08822-.04915.05729-.03158.09147-.05078.0599-.0332c.03222-.01791.07226-.04037.10481-.05827l.03842-.02149.13541-.07519.0153-.00847c.05143-.029.096-.05371.14746-.08235l.05176-.02865.09115-.0511.068-.03809.084-.04688c.02312-.013.03842-.02181.06185-.0345l.083-.04688.06576-.03678.08626-.0485.0599-.03353c.0319-.01823.05891-.0332.09114-.05143l.05339-.02995.10872-.0612.03809-.02148.11849-.06706.03092-.01725.29492-.167.05209-.02962.09635-.05469.05306-.03027.09342-.05306.06023-.03418.08658-.04915.06023-.03451.08691-.04948.06348-.03613.08593-.04948.0586-.0332.08952-.05111.05957-.0345.09733-.05567.04752-.02734.11914-.06836.08692-.05013.085-.04883.06087-.03516.083-.04752.06478-.03776.08659-.04981.05989-.03483c.02572-.01465.05632-.03222.08171-.0472l.06738-.03906.08171-.0472.06477-.03776.08106-.04688.0638-.03711.08724-.05045.0599-.03516.10091-.05892.04362-.02506c.05078-.02995.09277-.05436.14388-.084l.04362-.02571.10319-.06022.05436-.03191.0905-.05273.05924-.03483.08691-.05111.06185-.03613.08431-.0498.06022-.03516.08822-.05208.05925-.03483.08593-.05079.05957-.03515.08789-.05176.05925-.03516c.095-.05631.19336-.11425.28841-.17089l.03939-.02344c.0319-.01856.07422-.04395.10579-.06283l.054-.0319.08919-.05306.06022-.03581.08692-.05208.06087-.03613.08105-.0485.06511-.03874.08268-.04948.0625-.03744.08268-.04915.06153-.03711.09017-.054.05566-.03352.12012-.07194.07942-.04786.08334-.05045c.02278-.01335.04329-.026.06608-.03971l.0791-.04753.07064-.04264.07129-.0433.07291-.04394.071-.043.07487-.04525.06933-.042.07129-.0433.07194-.04362.0765-.04655.06185-.03776.07845-.04752.06673-.04069c.05078-.03093.09115-.05534.14193-.08659l.07259-.04427.07194-.04395.06868-.042.07552-.04622.07-.04265c.02246-.014.04948-.0306.07227-.04427l.07031-.04329.06934-.04264.07845-.04818.067-.04134.06966-.04265c.028-.01725.04786-.02929.07585-.04687l.068-.042.07455-.0459.07161-.04427.069-.04265.09148-.05631c.028-.01758.05208-.03255.0804-.04981l.10872-.06738.06413-.03971.08106-.05046.057-.03548.08724-.054.0638-.04.07455-.04623.07454-.04655.0625-.03874.08431-.05273.05762-.03581c.028-.01758.05045-.0319.07845-.04915l.06868-.043.07552-.0472.06413-.04036.0765-.04786.05176-.03255.16373-.10286.0625-.03939.07064-.0446.06966-.04362c.02214-.01432.054-.0345.0765-.0485l.06478-.04069.07943-.05046.05859-.0371.08171-.05144.06445-.04069.07552-.04817.06218-.03939.08007-.05078.0612-.03874.0804-.05111.06381-.04069.07454-.04752.09636-.0612c.03906-.02507.09212-.05892.13118-.08366l.0459-.02962c.028-.01758.06055-.03841.08821-.05632l.054-.0345.08171-.05241.05761-.03679.08724-.056.05241-.03352.082-.05274.06218-.04.07715-.04948.068-.04362.07031-.04557.06836-.04394.07683-.04948.05924-.03842.0778-.05013.13574-.08789.0599-.03873.082-.05339.06868-.04427.06869-.0446.07357-.04785.07129-.04655.06445-.04166.07812-.05111.06185-.04036c.02474-.016.05925-.03842.08366-.05469l.05729-.03711.07878-.05143.06641-.04362.06966-.04558.07161-.04687.08106-.05306.10351-.068c.02474-.01595.06283-.041.08757-.05729l.07975-.05273.05892-.03841.07715-.05111c.02474-.016.04134-.027.06575-.04329l.06836-.04493.07162-.0472.07291-.04817.06446-.04265.07552-.0498.06185-.041.07877-.05241.06413-.04231.07227-.04818.06575-.04329.07715-.05144.00911-.00618c.07715-.05111.15463-.10287.23145-.154l.02539-.01693.08431-.056.05827-.03906.08138-.05436.05306-.03549.08431-.05664.05631-.03743.084-.05632.04948-.0332.08691-.05859.05534-.03679.08268-.056.04753-.0319c.03287-.02181.06022-.04036.0931-.0625l.02408-.01627c.16407-.11068.31576-.21289.4795-.3239l.03157-.02148.095-.06445.04428-.02995c.02734-.01856.06022-.041.08756-.05925l.05046-.0345.08854-.06022.04785-.03256c.027-.01855.05859-.03971.08594-.05826l.05371-.03679.084-.05729.05827-.03971.07552-.05144.05957-.041.18-.123.0306-.02116.08464-.05794.05078-.03483.08138-.056.05794-.03971c.02735-.01888.054-.03744.08138-.056l.05241-.03614c.027-.01855.057-.03906.084-.05794l.05566-.03841.07975-.05469.05664-.03939.07976-.055.05826-.04.08073-.056.04037-.028c.15169-.10515.31022-.21517.46159-.32064l.03157-.02181.09245-.06445.0446-.03125.08821-.06153.05013-.03483.07976-.05566.05957-.042.07975-.05567.05208-.03646c.027-.01888.057-.03971.084-.05892l.04785-.03352c.03222-.02279.05859-.04135.09114-.06381l.029-.0205c.11328-.07976.22916-.16114.34212-.24089l.02278-.01595.09538-.06738.03972-.028c.03255-.02278.0524-.03711.08463-.05989l.055-.03874.08106-.05762.05176-.03646.08431-.05989.05013-.03548c.027-.01921.06022-.043.08724-.06185l.04264-.03028.0918-.06543.041-.02929.0957-.068.01335-.00944c.10742-.07649.2168-.15462.32389-.23112l.05827-.04166.07585-.05436.05859-.042.0765-.055.05892-.04232.07878-.05631.05436-.03907c.02669-.0192.05534-.03971.082-.05924l.0485-.03483.0905-.0651.03743-.0267c.0319-.02311.06315-.04557.09505-.069l.03353-.02409c.14974-.10807.3099-.22363.45931-.332l.0319-.02344c.03223-.02311.06283-.04557.09473-.06868l.03776-.02734.09147-.06674.04329-.03157c.03223-.02311.06088-.04427.09278-.06738l.03613-.02637.0957-.06966.03939-.02865c.02637-.01953.06576-.04818.09245-.06771l.03939-.029.0931-.068.03287-.02377q.231-.16942.46192-.33919l.026-.0192.10221-.0752.02832-.02116c.03191-.02344.068-.0498.09994-.07357l.03223-.02376.10026-.07389.03092-.02311.0957-.07064.04-.02962.096-.07129.02344-.01726.1084-.0804c.00586-.00423-.001.00065.00488-.00358.16406-.12174.32031-.238.48372-.36l.0254-.01888c.03678-.02767.067-.05013.10384-.07747l.02474-.01856.09928-.07454.03711-.02767.09407-.07031.03386-.02539.09863-.07422.028-.02083c.03711-.02767.06738-.05078.10449-.07845l.015-.0114c.2002-.15039.39779-.29948.59766-.45052l.029-.02181c.03678-.028.06315-.04818.09993-.07584l.03-.02279.095-.07194.03744-.02865c.03158-.02376.06478-.04915.096-.07291l.03092-.02344c.03158-.02409.06608-.05013.09733-.07422l.03125-.02376c.24121-.1836.474-.36133.7142-.5459l.02636-.02018.096-.07357.03483-.02669.0931-.07162.03809-.02962.0944-.07259.0293-.02246c.03645-.02832.06445-.04948.10091-.0778l.026-.02018c.03646-.028.06738-.05209.10384-.08041l.01042-.00781c.15625-.12077.3177-.24609.474-.36719l.02148-.01693.0931-.07226.03971-.03093.09017-.07031.03874-.03027c.03125-.02409.05827-.04525.08919-.06966l.03939-.0306c.03125-.02442.06152-.04818.09277-.07227l.03548-.02767c.026-.0205.06413-.05013.08985-.07063l.04134-.03223c.19206-.15007.38672-.30306.57812-.45378l.01595-.01269.09961-.07878.03256-.02572c.03125-.02441.06282-.04947.09375-.07389l.0345-.027c.03093-.02441.0599-.04752.09115-.07194l.04134-.03287.08919-.07064.03223-.02539.09928-.07878.01465-.01172c.16016-.12695.31738-.25228.47721-.37955l.00651-.00554.09733-.07747.03549-.02832.08593-.069.04232-.03353c.0306-.02474.0625-.05013.09343-.07487l.02929-.02344.097-.0778.03-.02409c.03613-.029.06315-.05045.09895-.07942l.02279-.01823.10547-.085.00488-.00391c.16439-.13216.31706-.25521.4808-.3877l.00911-.00748.10872-.08789.01693-.01368c.03581-.02929.06771-.05468.10352-.084l.02539-.02051.09993-.08138.02507-.01985c.0306-.02507.07-.0573.10058-.082l.02442-.01985.10644-.08659.00326-.00261c.2041-.16634.39941-.32584.60319-.49283l.00716-.00619c.03581-.0293.07487-.0612.11035-.09049l.016-.013.10352-.085.02344-.0192.10253-.08431.02051-.01725.10808-.08887.00716-.00586c.24381-.20117.47526-.39258.7181-.5944l.01009-.00846c.03548-.0293.07389-.0612.109-.09083l.015-.01237.10547-.08756.02051-.01758c.03548-.0293.069-.05729.10449-.08691l.01758-.01465.10449-.08724.02148-.0179c.23731-.19857.47038-.39421.707-.59343.00553-.00456-.00033.00033.0052-.00423.03516-.02995.07552-.0638.111-.09375l.01367-.01172c.03548-.02962.06966-.05859.10482-.08854l.02018-.01693.1084-.09147.00651-.00586c.04036-.03385.07422-.06282.11458-.09668l.00749-.00651c.20084-.17025.39258-.333.59277-.5039l.00423-.00359.09929-.08463.02929-.02507.09506-.08138.026-.02213.0983-.084.02474-.02148.09994-.08561.01888-.01595c.03483-.03028.06868-.05892.10351-.08887l.01726-.015c.23437-.2015.47037-.40463.7041-.6071l.00032-.00033c.04-.0345.0778-.06738.11752-.10188l.00358-.00293.1123-.09766.012-.01042.112-.097.00162-.00163c.27312-.2373.55176-.48079.82357-.7194l.0127-.01107c.03971-.03483.06738-.05924.10709-.09375l.0127-.01139.10937-.096.00847-.00749q.46679-.41064.932-.82454l.015-.01335.10449-.0931.01562-.01367.10222-.09114.0192-.01693c.30925-.276.61524-.55046.92318-.82813l.00977-.00879.1123-.10156.001-.00065q1.11377-1.00538,2.21321-2.02376h.00033A234.23615,234.23615,0,0,0,487.4196,295.126,42.70506,42.70506,0,0,0,445.29,245.39062Z" style="fill:#005eee"/><rect x="82.74517" y="132.7323" width="90.50967" height="203.86873" rx="45.25479" ry="45.25479" transform="translate(-128.44406 159.24194) rotate(-45)" style="fill:#005eee"/><path d="M57.205,206.53852l77.04786,77.04778c16.73882,16.7388,44.03624,19.94786,62.35917,4.95966a45.26443,45.26443,0,0,0,3.46609-67.1345l-63.24218-63.24219a30.17139,30.17139,0,0,1,0-42.66667h.0013a30.16981,30.16981,0,0,1,42.66536,0L289.29427,225.29427a31.99936,31.99936,0,0,1,9.3724,22.627v82.74543a32,32,0,0,0,64,0v-18.7461a31.99777,31.99777,0,0,1,9.37169-22.6256l63.46424-63.46554A42.67,42.67,0,0,0,448,195.65761l.00015-59.91294a41.52455,41.52455,0,0,0-8.64343-25.94728A234.00092,234.00092,0,0,0,256,21.33333c-90.22039,0-168.43979,50.96546-207.68256,125.6424A50.78772,50.78772,0,0,0,57.205,206.53852Z" style="fill:#4cc66e"/><path d="M158.16992,64a72.36951,72.36951,0,0,0-51.50553,21.33431,73.20416,73.20416,0,0,0-8.64388,10.416,21.33327,21.33327,0,1,0,35.221,24.08138,30.15732,30.15732,0,0,1,1.8903-2.47885l.001-.0013.03028-.0358.00032-.00033.0293-.03418.00293-.00358.02734-.0319.00423-.00488.02507-.0293.00618-.00716.026-.03028.00455-.0052c.0306-.03581.06153-.07162.09245-.1071l.00749-.00879.02213-.02539.012-.01367.0179-.02051.015-.01725.015-.01693.01595-.01823.01367-.0153.01888-.02148.01042-.01172.01953-.02246.01009-.0114.02148-.02376.00749-.00846.02214-.02507.00716-.00814c.06738-.07552.13346-.14908.20182-.22428l.00033-.00065.02767-.03027.00358-.00391.05827-.06413.00032-.00032c.1403-.153.2819-.304.42578-.45508l.00033-.00033q.12158-.12744.24479-.25358l.00521-.00521.026-.02669.00553-.00586.02539-.02571.00814-.00814.02409-.02442.00749-.00781.02376-.02409.01074-.01074.02149-.02181.01172-.01172.02018-.02051.01692-.01692.016-.01595.03255-.03256a30.17139,30.17139,0,0,1,42.66666,0l7.75684,7.75684a21.33347,21.33347,0,1,0,30.16992-30.17025l-7.75716-7.75683A72.35832,72.35832,0,0,0,158.16992,64Z" style="fill:#14a142"/><path d="M65.7474,160.08691a21.347,21.347,0,0,0-19.88835,29.0446,50.23383,50.23383,0,0,0,9.83952,15.83464l.00163.00162q.19627.21387.39518.42578l.00325.00326c.05534.05892.11133.11816.167.17708l.00847.00912.04915.05143.00586.00618c.03744.03939.07455.07846.11231.11752l.00293.00325.05175.05371.00847.00912.05208.05371.00228.0026.11165.11556.01075.01075.04394.04557.0127.01269c.03678.03776.07324.07552.11035.11329l.00748.00748.04688.04785.01237.0127.04655.04687.00879.00912.05566.05631.00554.00554.04785.04817.01595.01628.03971.03971.01628.01628.05371.05371,77.04785,77.04785a49.75031,49.75031,0,0,0,34.87793,14.57325,21.33334,21.33334,0,0,0,0-42.66667,7.16312,7.16312,0,0,1-4.708-2.07617L87.37467,176.36849a7.61534,7.61534,0,0,1-1.72949-2.64811A21.33861,21.33861,0,0,0,65.7474,160.08691Z" style="fill:#14a142"/><rect x="55.16344" y="272.15702" width="60.33978" height="95.68597" rx="30.16986" ry="30.16986" transform="translate(-201.2806 154.06558) rotate(-44.99999)" style="fill:#4cc66e"/><path d="M95.52214,291.94043a10.66683,10.66683,0,0,0-7.54232,18.20931l16.09863,16.09863a8.83659,8.83659,0,0,1-6.24837,15.085l-.63509-.02213c-.12826-.00456-.25586-.00684-.38347-.00684a11.13474,11.13474,0,0,0-11.02734,10.27116,10.21147,10.21147,0,0,0,8.734,10.90983q1.46386.16065,2.93652.179l.02279.00032.03157.00033.03321.00032.03873.00033.03646.00033h.02084l.05631.00032h.00846l.05241.00033h.07455a30.16508,30.16508,0,0,0,21.33333-51.50326h0l-.69173-.69173h0l-1.82389-1.82389h0l-2.57813-2.57813h0l-2.95573-2.95573h0l-2.9554-2.9554h0l-2.57845-2.57845h0l-1.82357-1.82357h0l-.69173-.69173h0a10.63417,10.63417,0,0,0-7.54264-3.12435Z" style="fill:#14a142"/><path d="M190.36308,444.23732l0,0a35.63116,35.63116,0,0,0,41.12976-6.67444l36.4384-46.25861a39.1347,39.1347,0,0,0,9.402-25.44591v0a39.13467,39.13467,0,0,0-26.7592-37.12641l-19.08125-6.36042a46.21253,46.21253,0,0,0-35.28053,2.50731l0,0a46.21248,46.21248,0,0,0-25.54564,41.33371v46.15529A35.63116,35.63116,0,0,0,190.36308,444.23732Z" style="fill:#4cc66e"/><path d="M244.2002,327.18164a10.66834,10.66834,0,0,0-3.37175,20.78874l2.99935.99967A17.77934,17.77934,0,0,1,256,365.8584a18.57252,18.57252,0,0,1-4.82715,12.24512l-35.48372,45.04622a14.30382,14.30382,0,0,1-18.73731.04A10.66667,10.66667,0,0,0,183.00749,439.335a35.61251,35.61251,0,0,0,6.91406,4.67806l.00391.002.05045.026.0166.00846.04558.02344.0205.01041.043.02214.02474.01269.04.02019.02767.014.03744.01888.03385.01726.0319.01595.06576.03287h.00032a35.56437,35.56437,0,0,0,14.085,3.71517q.91992.04737,1.83919.04753a35.615,35.615,0,0,0,25.20541-10.43717h0l36.43848-46.25847a39.135,39.135,0,0,0-17.3571-62.57259h0l-.12663-.04232-.00488-.00162-.06348-.02116-.00293-.001-.03548-.01172-.00391-.0013-.03613-.012-.00749-.0026-.01757-.00586h0l-.02051-.00683-.00488-.00163-.01791-.00586-.00553-.002-.00554-.002-.0319-.01041-.00195-.00066-.01107-.0039-.001-.00033-2.61589-.87174a10.65,10.65,0,0,0-3.35937-.54525Z" style="fill:#14a142"/><path d="M256,106.66667h-.18457l-.08333.00032h-.06088l-.07194.00033h-.06477l-.068.00032-.07.00033h-.01139l-.20833.001h-.02637l-.096.00065-.0332.00032c-.03516,0-.068.00033-.10352.00065h-.01041q-.2793.002-.55762.00489a42.66735,42.66735,0,0,0,.96452,85.32682c.05469,0,.1136,0,.168-.00033L256,192a42.66763,42.66763,0,0,0,.4681-85.33268q-.2339-.0005-.4681-.00065Z" style="fill:#84d89c"/><path d="M120.92417,192.32139l-.05691.12073-.02179.04622-.03524.07552-.026.05506-.03038.06521-.02763.05859-.02871.06168-.02955.06345-.00486.0103-.08795.18886-.01125.02385-.04036.08714-.01386.03017c-.015.0318-.02872.06168-.04355.09391l-.00445.00942q-.11733.25347-.23336.50646A42.66735,42.66735,0,0,0,197.82,229.33053c.02332-.04947.04844-.10276.07133-.15207l.21908-.46929a42.66763,42.66763,0,0,0-76.986-36.81091q-.10018.21135-.2002.42313Z" style="fill:#84d89c"/><circle cx="213.33333" cy="362.66667" r="21.33333" style="fill:#84d89c"/><circle cx="74.66667" cy="309.33333" r="10.66667" style="fill:#84d89c"/><path d="M426.66667,106.66667A21.33272,21.33272,0,0,0,405.33333,128v67.65885l-.0013.00131L341.86849,259.125A74.17605,74.17605,0,0,0,320,311.92057v8.79818a21.33334,21.33334,0,0,0,42.66667,0v-8.79818a31.99679,31.99679,0,0,1,9.37239-22.6263l63.46354-63.46484A42.6684,42.6684,0,0,0,448,195.65755V128A21.33272,21.33272,0,0,0,426.66667,106.66667Z" style="fill:#14a142"/><path d="M298.8877,183.38477a21.33333,21.33333,0,0,0-15.08822,36.41471l5.49479,5.49479h0l.03613.03613.01791.01823.0179.01791.02018.0205.01628.01628.02051.02083.0153.0153.02181.02214.014.014.02181.02246.01433.01432.02213.02279.013.01334.02344.02409.01074.01107.02572.02637.00846.00879.027.02766.00684.00717a31.9751,31.9751,0,0,1,3.55957,4.39062l.00162.00195.02442.03646.0039.00586.02247.03353.00585.00879.02181.03255.00586.00912.02149.0319.00651.01009.02116.0319.00618.00944.02149.03255.00521.00781.02278.03418.00326.00489c.04231.06478.08463.12923.1263.194l.00553.00846.01986.0306.00749.01172.0192.02962.00847.013.01757.02767.0101.01563.01725.027.00976.0153.01693.0267.01074.0166.01595.02539.01205.01888.01465.02344.01237.01953.015.02376.0127.01986.014.02246.01433.02246.01269.02083.02181.03483.00488.00749.02637.04264.01107.01758.0166.027.00944.015.01725.028.01042.01693.0166.02734.01009.01628.0166.027.01075.01726.01627.027.01009.01628.01726.02832.00878.01465.01921.03157.00716.01172.02051.03418.00553.00944.02344.03874.00293.00456q.08106.13526.16081.27116l.001.0013.02572.04394.0013.002.02507.04329.00163.00261.02506.043.0013.00228a32.00927,32.00927,0,0,1,2.2653,4.76823,21.33336,21.33336,0,0,0,39.90528-15.10026,74.17418,74.17418,0,0,0-17.0459-26.39518l-5.49121-5.49121a21.26642,21.26642,0,0,0-15.085-6.24837Z" style="fill:#14a142"/></g></svg>