<?xml version="1.0" encoding="UTF-8"?>
<!DOCTYPE svg PUBLIC "-//W3C//DTD SVG 1.1//EN" "http://www.w3.org/Graphics/SVG/1.1/DTD/svg11.dtd">
<!-- Creator: CorelDRAW -->
<svg xmlns="http://www.w3.org/2000/svg" xml:space="preserve" width="6.82666in" height="6.82666in" style="shape-rendering:geometricPrecision; text-rendering:geometricPrecision; image-rendering:optimizeQuality; fill-rule:evenodd; clip-rule:evenodd"
viewBox="0 0 6.82666 6.82666"
 xmlns:xlink="http://www.w3.org/1999/xlink">
 <defs>
  <style type="text/css">
   <![CDATA[
    .fil0 {fill:none}
    .fil2 {fill:#192125}
    .fil6 {fill:#1B7ACE}
    .fil4 {fill:#1E88E5}
    .fil3 {fill:#263238}
    .fil7 {fill:#74B377}
    .fil5 {fill:#81C784}
    .fil1 {fill:#1C2529;fill-rule:nonzero}
   ]]>
  </style>
 </defs>
 <g id="Layer_x0020_1">
  <metadata id="CorelCorpID_0Corel-Layer"/>
  <g id="_311381808">
   <rect id="_311382048" class="fil0" width="6.82666" height="6.82666"/>
   <rect id="_311381976" class="fil0" x="0.853331" y="0.853331" width="5.12" height="5.12"/>
  </g>
  <path class="fil1" d="M5.13576 3.47058l0.392516 0.218067 0.0550039 0.0305551 0 0.0623622 0 3.93701e-006 -0.013752 0.0516654c-0.309606,0.557291 -0.815638,0.936295 -1.38347,1.09853 -0.567697,0.162197 -1.1975,0.107701 -1.75484,-0.201925l-7.87402e-006 -3.93701e-006c-0.557295,-0.309606 -0.936295,-0.815634 -1.09854,-1.38347 -0.162197,-0.567705 -0.107701,-1.19752 0.201929,-1.75485l0.0516142 -0.0929016 0.0929685 0.0516496 0.392528 0.218075 0.0929882 0.0516614 -0.0517362 0.0929213c-0.0669409,0.120236 -0.119283,0.249713 -0.154567,0.386004 -0.0339567,0.131165 -0.0520354,0.269677 -0.0520354,0.413453 0,0.454461 0.184201,0.86589 0.482008,1.1637 0.297807,0.297807 0.70924,0.482008 1.1637,0.482008 0.304559,0 0.589346,-0.0823228 0.833315,-0.225843 0.252984,-0.148823 0.462736,-0.363461 0.605791,-0.620406l0.0516969 -0.0928583 0.0928858 0.0516063zm0.193957 0.350996l-0.207075 -0.115043c-0.158311,0.249567 -0.374508,0.458882 -0.629752,0.609035 -0.27639,0.162594 -0.597976,0.25585 -0.940819,0.25585 -0.513343,0 -0.97811,-0.208087 -1.31454,-0.544512 -0.336425,-0.336425 -0.544512,-0.801189 -0.544512,-1.31453 0,-0.160252 0.020689,-0.316705 0.0595394,-0.466783 0.0307874,-0.118909 0.0730433,-0.233189 0.1255,-0.341598l-0.206913 -0.114953c-0.23689,0.481622 -0.271768,1.01496 -0.133476,1.499 0.147335,0.515673 0.491268,0.975071 0.996862,1.25596l7.87402e-006 3.93701e-006c0.505551,0.280858 1.07737,0.330138 1.59318,0.182764 0.483878,-0.138248 0.918205,-0.44961 1.20199,-0.905189z"/>
  <ellipse class="fil2" cx="3.13996" cy="5.7642" rx="0.973402" ry="0.293331"/>
  <ellipse class="fil3" cx="3.13996" cy="5.7642" rx="0.946736" ry="0.266665"/>
  <polygon class="fil1" points="3.24663,4.87567 3.24663,5.7642 3.0333,5.7642 3.0333,4.87567 "/>
  <g id="_311380128">
   <g>
    <circle id="_311382216" class="fil4" cx="3.55107" cy="2.71238" r="1.85833"/>
    <g>
     <polygon id="_311380920" class="fil5" points="4.47787,1.58742 4.48195,1.61752 4.43673,1.62691 4.43067,1.69088 4.48476,1.69088 4.55685,1.68388 4.59386,1.63993 4.55437,1.62452 4.53281,1.5997 4.50029,1.54719 4.48476,1.47311 4.4237,1.48531 4.4066,1.51178 4.4066,1.54105 4.4359,1.56096 "/>
     <polygon id="_311380824" class="fil5" points="4.42621,1.61232 4.42943,1.572 4.39358,1.55646 4.34357,1.56793 4.30648,1.62774 4.30648,1.66598 4.34963,1.66598 "/>
     <path id="_311381328" class="fil5" d="M3.39689 1.78277l-0.0110433 0.0281496 -0.0532559 0 0 0.0276142 0.0126142 0c0,0 0.00073622,0.00573228 0.00156299,0.0134409l0.0330236 -0.00280709 0.0203189 -0.0126102 0.00531496 -0.0256378 0.0264646 -0.00209843 0.0101024 -0.0215591 -0.0239528 -0.00490551 -0.0211496 0.000413386z"/>
     <polygon id="_311381400" class="fil5" points="3.25922,1.83248 3.25724,1.85977 3.29591,1.85643 3.29998,1.82926 3.27674,1.81092 "/>
     <path id="_311381304" class="fil5" d="M4.77884 1.31755c0.0432717,0.0381299 0.0847992,0.0782087 0.124374,0.120181l-0.000413386 0.0902913 -0.0798346 0.0407283 0.00812205 0.0264646 0.127449 0.00115354 0.0362677 -0.0539055c0.0816378,0.100598 0.153055,0.209882 0.21248,0.326311l-0.0114882 0.0129961 0 0.0822008 0.0362402 -0.00490551 0.0183701 0.000385827c0.0119646,0.026937 0.0233346,0.0542283 0.0340276,0.0818425l-0.0963465 0.00156693 -0.0488819 -0.0532559 -0.00927559 -0.0859488 -0.0497087 0.0272913 -0.026878 0.104618 -0.071563 -0.0765 -0.0029252 -0.0720945 -0.0696142 -0.059811 -0.0256378 -0.0256378 -0.0805157 0 0.0256102 0.0720079 0.0969055 0.0537559 0.016689 0.0179291 -0.0207362 0.0105157 0.000708661 0.0570039 -0.0471969 0.0195787 -0.0402008 -0.00894882 -0.0253386 -0.0354134 0.0655394 0.00322047 0.0179291 -0.0235394 -0.14526 -0.0981772 -0.0110433 -0.0414685 -0.0589567 0.0533701 -0.0598071 -0.012315 -0.0912953 0.118055 -0.017811 0.0464882 -0.0582441 0.00519685 -0.0862756 0.000413386 -0.0512756 -0.0239528 -0.0150906 -0.102638 0.0183425 -0.0483465 0.0875118 -0.0191693 0.0956693 0.0191693 0.011752 -0.0529291 -0.0407283 -0.00980709 0.0138543 -0.0821969 0.0964921 -0.015122 0.0671929 -0.0952244 0.0696181 -0.0117835 0.0626142 0.00938976 0.0228307 0 -0.0126102 -0.0891969 -0.0761732 0.0309528 -0.026878 -0.0666929 -0.0443031 -0.00614173 -0.00812205 -0.0459567 0.0361496 -0.0390787 0.0858622 -0.0338465 0.0218268 -0.0390748zm0.555717 0.871484c0.0093622,0.0319843 0.0179567,0.0643268 0.0256378,0.0969961l-0.00520079 0.00555118 0.0111063 0.0208504c0.0282953,0.128807 0.0432992,0.262634 0.0432992,0.399945 0,0.444484 -0.156154,0.852433 -0.416453,1.17222l-0.060874 0 0 -0.123697 -0.0708583 -0.0952244 0 -0.149008 -0.0540787 -0.0537559 -0.00448819 -0.0617874 0.0687874 -0.131496 -0.130665 -0.230378 0.0155354 -0.15589 -0.117642 -0.0126102 -0.0431535 -0.043126 -0.0789764 0 -0.0399016 0.0369803 -0.139205 0 -0.00448819 0.0126142 -0.0777087 0 -0.177453 -0.202618 0.00165354 -0.157543 0.0292717 -0.0109567 0.0109567 -0.0602244 -0.0418819 0 -0.0171024 -0.063563 0.205484 -0.14815 0 -0.104941 0.100539 -0.0562677 0.0407598 0.00449213 0.0830236 0 0.0647126 -0.0349134 0.208819 -0.0163622 0 0.106713 0.164398 0.0418819 0.0325157 0.0232441 0.0302165 0 0 -0.0582717 0.095252 -0.00895276 0.0903228 0.0672244 0.148181 0 0.00965748 -0.00897638zm-3.49456 -0.202823c0.0205551,-0.0483819 0.0432087,-0.0956969 0.0676654,-0.14189l0.0759961 -0.0924764 -0.00316142 -0.0330827c0.126059,-0.198835 0.28889,-0.372063 0.478835,-0.510201l0.0929213 -0.000826772 0.042 0.023126 0.078563 0.017189 0.00605512 0.0308346 0.12535 0.00490551 -0.0170984 -0.0402283 -0.111087 -0.00333858 0.0260512 -0.0239528 -0.0093622 -0.0297126 -0.100539 0 0.109902 -0.0817835 0.105028 0 0.0492087 0.0679291 0.0821969 0.00490551 0.0492953 -0.0480276 0.0373937 0.0183425 -0.0683465 0.0666614c0,0 -0.0939843,0.00168504 -0.0895236,0.00168504 0.00490551,0 0.00774016,0.0647126 0.00774016,0.0647126l0.11439 -0.00324803 0.0122008 -0.0305118 0.0789764 -0.00490157 0.00927559 -0.0463701 -0.0463701 -0.00782677 0.0155354 -0.0414685 0.0352953 -0.0110472 0.123783 0.00614173 -0.0683465 0.0619094 0.0109606 0.0480236 0.0712677 0.0105433 -0.00448819 -0.0862717 0.0679331 -0.0358583 0.120445 -0.0137638 0.174618 0.0773268 0 0.0662756 0.0557323 0.0142677 -0.0280276 0.0525157 -0.0785394 0 -0.0236575 0.0602205 -0.179843 -0.0427087 0.141626 -0.0753465 -0.0540827 -0.0459567 -0.12213 0.0154173 -0.0106339 0.0110472 -0.000413386 0 -0.00197638 0.0023937 -0.035 0.0366811 -0.0582441 0.00490551 0.00448819 0.0288543 0.0203189 0.00853543 -0.00073622 0.00980709 -0.0473189 0.0064685 -0.00321654 0.0277047 -0.0451339 0.00209843 -0.00812205 -0.0546142 -0.0814882 0.024811 -0.165665 0.0969055 0.0187559 0.0683465 0.0463701 0.0300984 0.0924173 0.0130236 0 0.105445 0.0431535 -0.00685433 0.0394882 -0.0826417 0.0984724 -0.0309528 0 -0.126591 0.0549961 -0.0414685 0.132232 0.031252 -0.00894882 0.0834646 0.0354134 0 0.0973189 -0.0476102 0.00448819 0.10952 0.071122 0.043122 -0.00280315 0.065126 -0.0679055 0.0232441 0.00449213 0.021563 0.081752 0.0369764 -0.0016811 0.0448071 -0.0235394 0.00198031 -0.000413386 -0.00115354 -0.103024 -0.031752 -0.00448819 -0.0329291 0.0302165 -0.0208543 0 -0.0305118 -0.0326102 -0.00814961 -0.00812205 0.0281457 -0.0570039 0.00853543 -0.00572835 -0.00206693 0 0.0028937 -0.0194646 0.00325197 -0.0162756 -0.0326102 -0.0187559 -0.00814961 -0.040315 0 -0.0186654 0.015122 0 0.0333465 0.0349094 0.0113425 0.0342913 0.00490157 -0.00782677 0.00366142 -0.031248 0.0345866 -0.0138543 -0.0173976 -0.030126 -0.00782677 -0.0821969 0.0773268 0.0105157 0.00894882 -0.121276 0.0672244 -0.114421 0.119177 -0.00812205 0.0529252 -0.114717 0.0753465 -0.056563 0.0574173 0.00602756 0.114303 -0.0788622 -0.0370079 0.000708661 -0.0667795 -0.219335 0 -0.113563 0.0574173 -0.0495906 0.0911772 -0.0191693 0.0719803 0.0317795 0.0700276 0.0894961 0.0110472 0.142008 -0.0952244 0.0126102 0.0472008 -0.0435354 0.0817835 0.108248 0.0187559 0.0110472 0.167201 0.14815 0.024811 0.0944291 -0.108543 0.11439 0.023126 0.0402283 0.0557047 0.10952 -0.00644094 0.00322047 -0.0326063 0.060311 0.029685 0.0679606 0.106681 0.117201 0.00168504 0.043563 0.0756417 0.00614567 0.0928307 0.129807 0.0491772 0.163571 0.0016811 0.0480551 0.0785669 0.0728346 0.0235394 -0.0142953 0.0648031 -0.0792756 0.101276 -0.0232441 0.223913 -0.0720079 0.0565906 -0.106681 -0.00333858 -0.0354134 0.0619094 0.0264331 0.115957 -0.115929 0.148594 -0.0370945 0.0680197 -0.110642 0.0528386 -0.0728346 0.0110472 -0.0029252 0.0309528 0.0509488 0.014563 -0.00614173 0.0330512 -0.0455472 0.0443898 0.0276181 0.0345866 0.0550236 0.00156693 -0.0029252 0.0422953 -0.0145906 0.042 -0.00448819 0.0337598 0.0809567 0.0687598 -0.0106024 0.0354134 -0.110669 -0.00206693 -0.110346 -0.0959646 -0.0854488 -0.151075 0.0117874 -0.145256 -0.065126 -0.086689 0.0264606 -0.146909 -0.0386614 -0.0106339 0 -0.318752c0,0 -0.108248,-0.0817835 -0.11439,-0.0817835 -0.00605512,0 -0.0568858,-0.0137638 -0.0568858,-0.0137638l-0.0110472 -0.060311 -0.140886 -0.176213 0.0142953 -0.0634409 0.00446063 -0.103465 0.0973189 -0.0679331 -0.0138543 -0.115988 -0.142421 -0.0106299 -0.111201 -0.126976 -0.0785669 -0.021563 -0.0512441 -0.00927165 0.00614567 -0.0460748 -0.0647126 -0.00936614 0 0.0260512 -0.162449 -0.039815 -0.0655394 -0.100126 0.0269055 -0.048437 -0.102961 -0.149835 -0.0175157 -0.109846 -0.0415551 0 0.0138504 0.106594 0.0712717 0.109933 -0.00770866 0.0431535 -0.0606378 -0.0093937 -0.0740748 -0.126177 0 -0.147323 -0.077 -0.0370984 0 -0.10426zm0.618272 -0.683252l0 -0.00322047 0.0407598 0 0.00322047 -0.0138819 0.0666929 0 0 0.0288858 -0.0190827 0.0251929 -0.0915906 0 0 -0.0369764zm0.065126 0.0903189c0,0 0.0403465,-0.00685039 0.0439803,-0.00685039 0.00322047,0 0,0.0406417 0,0.0406417l-0.0915906 0.00572835 -0.0175157 -0.0207638 0.065126 -0.0187559zm0.106594 0.213307l0.0484685 -0.0232441 0.0439488 0.0106339 -0.0150039 0.0589843 -0.0476102 0.0150906 -0.0298031 -0.0614646zm0.258528 0.139205l0 0.038248 -0.111496 0 -0.0415866 -0.0113701 0.0106339 -0.026878 0.053252 -0.0219764 0.0729252 0 0 0.0219764 0.0162717 0zm0.0508307 0.0533386l0 0.0370118 -0.0277047 0.0178976 -0.0349094 0.0064685 0 -0.061378 0.0626142 0zm-0.0313661 -0.0150906l0 -0.0439803 0.0383661 0.0345866 -0.0383661 0.0093937zm0.0175157 0.0891693l0 0.0361811 -0.0264646 0.0264646 -0.0593976 0 0.0093937 -0.0403465 0.0280276 -0.0023937 0.00573228 -0.0138504 0.0427087 -0.00605512zm-0.147327 -0.0740787l0.0614646 0 -0.078563 0.11026 -0.0325197 -0.0175157 0.00688189 -0.0463701 0.0427362 -0.046374zm0.251528 0.061378l0 0.0362677 -0.0589803 0 -0.016248 -0.0235669 0 -0.033437 0.00490551 0 0.0703228 0.0207362zm-0.0544921 -0.0495906l0.0170709 -0.0175157 0.0284449 0.0175157 -0.0227126 0.0187559 -0.0228031 -0.0187559z"/>
    </g>
   </g>
   <g>
    <path id="_311381064" class="fil6" d="M3.55107 0.854043c1.02632,0 1.85833,0.832016 1.85833,1.85833 0,1.02632 -0.832012,1.85833 -1.85833,1.85833l0 -3.71667z"/>
    <g>
     <polygon id="_311380776" class="fil7" points="4.47787,1.58742 4.48196,1.61752 4.43672,1.62691 4.43067,1.69089 4.48476,1.69089 4.55684,1.68389 4.59385,1.63993 4.55438,1.62452 4.53281,1.59971 4.50028,1.54719 4.48476,1.47311 4.42371,1.48532 4.40661,1.51178 4.40661,1.54104 4.43591,1.56096 "/>
     <polygon id="_311380536" class="fil7" points="4.42621,1.61231 4.42943,1.572 4.39358,1.55647 4.34357,1.56792 4.30647,1.62774 4.30647,1.66599 4.34963,1.66599 "/>
     <path id="_311380584" class="fil7" d="M4.77884 1.31755c0.0432756,0.038126 0.0847953,0.0782126 0.124378,0.120181l-0.000413386 0.0902953 -0.0798346 0.0407244 0.00812598 0.0264685 0.127449 0.00114961 0.0362638 -0.0538937c0.0816378,0.100594 0.153051,0.209874 0.21248,0.326303l-0.0114921 0.0129882 0 0.0822087 0.0362402 -0.00490945 0.018374 0.000389764c0.0119567,0.0269409 0.0233346,0.0542244 0.0340236,0.0818386l-0.0963386 0.00156693 -0.0488858 -0.053252 -0.00927559 -0.0859528 -0.0497047 0.0272953 -0.026878 0.104614 -0.0715669 -0.0765 -0.00291732 -0.0720906 -0.069622 -0.059811 -0.0256339 -0.0256339 -0.0805118 0 0.0255984 0.0720039 0.0969055 0.0537638 0.016689 0.0179213 -0.0207362 0.0105118 0.000712598 0.0570118 -0.0472008 0.0195709 -0.0402008 -0.00894094 -0.0253386 -0.0354213 0.0655394 0.00322441 0.0179252 -0.0235472 -0.145256 -0.0981614 -0.0110315 -0.0414724 -0.0589685 0.0533701 -0.0597992 -0.012315 -0.0912953 0.118047 -0.0178071 0.0465 -0.0582559 0.00518504 -0.0862756 0.000413386 -0.0512717 -0.0239488 -0.0150866 -0.102638 0.0183268 -0.0483504 0.0875236 -0.0191693 0.0956693 0.0191693 0.0117559 -0.0529291 -0.0407362 -0.00979921 0.0138543 -0.0821969 0.0965039 -0.0151339 0.067189 -0.0952205 0.0696102 -0.0117795 0.062622 0.0093937 0.0228346 0 -0.012622 -0.0892047 -0.0761693 0.0309606 -0.0268701 -0.0666929 -0.0443189 -0.00614173 -0.00811417 -0.0459567 0.0361457 -0.0390866 0.0858622 -0.0338346 0.0218268 -0.0390866zm-1.22777 2.49663l0 -0.78315 0.0505354 0.0191457 0.163571 0.00169685 0.0480551 0.0785512 0.0728386 0.0235472 -0.0142953 0.0647953 -0.0792795 0.10128 -0.0232362 0.223917 -0.0720079 0.0565866 -0.106689 -0.00333465 -0.0354094 0.0618976 0.0264291 0.115957 -0.0305118 0.0391102zm0 -2.02959l0 -0.0619213 0.058248 0.0263465 -0.00168504 0.0448031 -0.0235354 0.00197244 -0.000417323 -0.00115354 -0.0326102 -0.0100472zm0 -0.103713l0 -0.104673 0.0427047 0.0258937 -0.00279921 0.065126 -0.0399055 0.0136535zm0 -0.344157l0 -0.150547 0.0394921 0.0174882 0 0.0662756 0.0557283 0.0142717 -0.0280315 0.0525118 -0.067189 0zm1.78348 0.852311c0.00937008,0.0319961 0.0179724,0.0643425 0.0256457,0.097l-0.00520866 0.00555118 0.0111181 0.0208543c0.0282913,0.128803 0.0432953,0.262638 0.0432953,0.399945 0,0.444476 -0.156157,0.852441 -0.416445,1.17222l-0.060878 0 0 -0.123705 -0.0708661 -0.0952205 0 -0.149004 -0.0540827 -0.0537598 -0.00448425 -0.0617795 0.0687913 -0.131496 -0.130665 -0.230382 0.0155276 -0.155886 -0.11763 -0.012622 -0.0431535 -0.043122 -0.0789803 0 -0.0399055 0.0369764 -0.139209 0 -0.00448425 0.012622 -0.0777087 0 -0.177453 -0.20261 0.00166142 -0.157547 0.0292638 -0.0109606 0.0109606 -0.0602283 -0.0418858 0 -0.0170945 -0.0635591 0.205472 -0.14815 0 -0.104949 0.100547 -0.0562638 0.0407598 0.00449606 0.0830236 0 0.0647087 -0.0349094 0.208819 -0.0163583 0 0.106713 0.164402 0.0418661 0.0325157 0.0232598 0.0302126 0 0 -0.0582795 0.0952559 -0.00895669 0.0903228 0.0672362 0.148173 0 0.00965748 -0.00899213z"/>
    </g>
   </g>
  </g>
 </g>
 <rect class="fil0" width="6.82666" height="6.82666"/>
</svg>
